<svg width="954" height="197" viewBox="0 0 954 197" fill="none" xmlns="http://www.w3.org/2000/svg">
<path d="M5.5673 154V142.113C13.9935 134.188 21.3664 127.016 27.686 120.596C34.0057 114.076 38.9209 108.158 42.4318 102.841C45.9427 97.5245 47.6982 92.5089 47.6982 87.7943C47.6982 82.9793 46.4443 79.2678 43.9365 76.6597C41.4287 74.0516 37.9178 72.7475 33.4038 72.7475C29.9932 72.7475 26.8334 73.7507 23.9243 75.7569C21.0153 77.7631 18.357 80.1205 15.9496 82.8289L4.66449 71.6943C9.27883 66.6787 13.9935 62.917 18.8084 60.4092C23.7237 57.9014 29.5418 56.6475 36.2627 56.6475C42.482 56.6475 47.8988 57.9014 52.5132 60.4092C57.2278 62.8167 60.8892 66.2774 63.4973 70.7915C66.1054 75.3055 67.4094 80.622 67.4094 86.741C67.4094 92.1579 65.9048 97.675 62.8954 103.292C59.8861 108.91 55.9238 114.628 51.0085 120.446C46.1935 126.164 40.9773 131.931 35.3599 137.75C37.8677 137.449 40.5761 137.198 43.4851 136.997C46.4945 136.797 49.1527 136.696 51.4599 136.696H72.0739V154H5.5673ZM108.402 155.806C98.1706 155.806 89.9952 151.542 83.8762 143.016C77.7572 134.489 74.6977 122.101 74.6977 105.85C74.6977 89.4996 77.7572 77.2114 83.8762 68.9859C89.9952 60.7603 98.1706 56.6475 108.402 56.6475C118.534 56.6475 126.659 60.8105 132.778 69.1363C138.897 77.3619 141.957 89.5999 141.957 105.85C141.957 122.101 138.897 134.489 132.778 143.016C126.659 151.542 118.534 155.806 108.402 155.806ZM108.402 139.856C111.011 139.856 113.368 138.853 115.474 136.847C117.681 134.84 119.387 131.38 120.59 126.464C121.794 121.449 122.396 114.578 122.396 105.85C122.396 97.023 121.794 90.2018 120.59 85.3868C119.387 80.5719 117.681 77.2616 115.474 75.456C113.368 73.55 111.011 72.5971 108.402 72.5971C105.694 72.5971 103.236 73.55 101.03 75.456C98.923 77.2616 97.2678 80.5719 96.0641 85.3868C94.8604 90.2018 94.2585 97.023 94.2585 105.85C94.2585 114.578 94.8604 121.449 96.0641 126.464C97.2678 131.38 98.923 134.84 101.03 136.847C103.236 138.853 105.694 139.856 108.402 139.856ZM149.847 154V55.8952H170.461V97.4242H171.063L202.059 55.8952H224.93L194.987 94.7158L230.196 154H207.476L182.799 110.966L170.461 126.916V154H149.847ZM251.619 139.706V111.719H224.987V96.9728H251.619V68.9859H266.816V96.9728H293.449V111.719H266.816V139.706H251.619Z" fill="#CA6767"/>
<path d="M375.363 155.806C367.037 155.806 359.463 153.9 352.642 150.088C345.821 146.276 340.354 140.608 336.241 133.085C332.128 125.562 330.072 116.333 330.072 105.399C330.072 97.2738 331.276 90.0513 333.683 83.7317C336.091 77.412 339.401 72.0454 343.614 67.6317C347.927 63.1176 352.843 59.7572 358.36 57.5503C363.977 55.2432 369.846 54.0896 375.965 54.0896C382.284 54.0896 387.902 55.3435 392.817 57.8513C397.833 60.3591 401.945 63.3182 405.155 66.7288L394.171 79.97C391.663 77.5625 389.005 75.6064 386.196 74.1018C383.388 72.5971 380.127 71.8447 376.416 71.8447C371.701 71.8447 367.438 73.199 363.626 75.9074C359.814 78.5155 356.805 82.2772 354.598 87.1924C352.391 92.1077 351.288 97.9759 351.288 104.797C351.288 111.719 352.291 117.687 354.297 122.703C356.303 127.618 359.162 131.38 362.874 133.988C366.686 136.596 371.099 137.9 376.115 137.9C380.228 137.9 383.889 136.997 387.099 135.192C390.409 133.386 393.318 131.129 395.826 128.421L406.81 141.361C402.798 146.075 398.133 149.687 392.817 152.194C387.5 154.602 381.682 155.806 375.363 155.806ZM432.853 155.806C424.928 155.806 419.11 153.147 415.399 147.831C411.687 142.514 409.832 135.192 409.832 125.863V79.5186H430.446V123.305C430.446 128.922 431.248 132.834 432.853 135.041C434.558 137.148 437.116 138.201 440.527 138.201C443.436 138.201 445.944 137.549 448.05 136.245C450.157 134.84 452.364 132.533 454.671 129.323V79.5186H475.285V154H458.433L456.928 143.467H456.476C453.266 147.279 449.806 150.288 446.094 152.495C442.383 154.702 437.969 155.806 432.853 155.806ZM507.55 155.806C502.634 155.806 497.569 154.853 492.352 152.947C487.236 150.94 482.823 148.433 479.111 145.423L488.44 132.483C491.851 134.991 495.161 136.947 498.371 138.351C501.581 139.756 504.841 140.458 508.151 140.458C511.662 140.458 514.22 139.806 515.825 138.502C517.43 137.198 518.233 135.442 518.233 133.235C518.233 131.53 517.48 130.076 515.976 128.872C514.571 127.568 512.665 126.464 510.258 125.562C507.951 124.559 505.493 123.555 502.885 122.552C499.775 121.349 496.666 119.844 493.556 118.038C490.547 116.233 487.989 113.925 485.882 111.117C483.876 108.308 482.873 104.847 482.873 100.735C482.873 93.9133 485.431 88.3962 490.547 84.1831C495.663 79.8697 502.434 77.713 510.86 77.713C516.477 77.713 521.393 78.6659 525.606 80.5719C529.819 82.4778 533.48 84.6345 536.59 87.042L527.411 99.5308C524.703 97.5245 522.045 95.9697 519.436 94.8663C516.828 93.6625 514.17 93.0607 511.462 93.0607C508.352 93.0607 505.995 93.7127 504.39 95.0167C502.885 96.2205 502.133 97.8255 502.133 99.8317C502.133 101.437 502.835 102.791 504.239 103.894C505.644 104.998 507.499 106.001 509.807 106.904C512.114 107.806 514.571 108.709 517.179 109.612C520.389 110.816 523.549 112.32 526.659 114.126C529.769 115.831 532.377 118.139 534.483 121.048C536.59 123.856 537.643 127.518 537.643 132.032C537.643 136.445 536.489 140.458 534.182 144.069C531.875 147.68 528.465 150.539 523.951 152.646C519.537 154.752 514.07 155.806 507.55 155.806ZM570.212 155.806C561.184 155.806 554.714 153.198 550.802 147.981C546.99 142.765 545.084 135.944 545.084 127.518V95.7691H534.852V80.4214L546.288 79.5186L548.695 59.6569H565.698V79.5186H583.905V95.7691H565.698V127.367C565.698 131.58 566.551 134.69 568.256 136.696C570.062 138.602 572.519 139.555 575.629 139.555C576.933 139.555 578.237 139.405 579.541 139.104C580.845 138.803 581.999 138.452 583.002 138.05L586.312 153.097C584.306 153.699 581.949 154.301 579.24 154.903C576.532 155.505 573.523 155.806 570.212 155.806ZM620.615 155.806C614.296 155.806 608.377 154.301 602.86 151.292C597.443 148.182 593.03 143.718 589.619 137.9C586.208 132.082 584.503 125.06 584.503 116.835C584.503 108.609 586.208 101.587 589.619 95.7691C593.03 89.951 597.443 85.4871 602.86 82.3775C608.377 79.2678 614.296 77.713 620.615 77.713C626.835 77.713 632.653 79.2678 638.07 82.3775C643.587 85.4871 648.051 89.951 651.461 95.7691C654.872 101.587 656.577 108.609 656.577 116.835C656.577 125.06 654.872 132.082 651.461 137.9C648.051 143.718 643.587 148.182 638.07 151.292C632.653 154.301 626.835 155.806 620.615 155.806ZM620.615 139.104C623.825 139.104 626.534 138.201 628.741 136.395C630.947 134.59 632.603 132.032 633.706 128.721C634.809 125.311 635.361 121.349 635.361 116.835C635.361 112.32 634.809 108.408 633.706 105.098C632.603 101.687 630.947 99.0794 628.741 97.2738C626.534 95.3678 623.825 94.4149 620.615 94.4149C617.305 94.4149 614.546 95.3678 612.34 97.2738C610.133 99.0794 608.478 101.687 607.374 105.098C606.271 108.408 605.719 112.32 605.719 116.835C605.719 121.349 606.271 125.311 607.374 128.721C608.478 132.032 610.133 134.59 612.34 136.395C614.546 138.201 617.305 139.104 620.615 139.104ZM662.405 154V79.5186H679.258L680.762 89.299H681.364C684.374 86.1893 687.684 83.4809 691.295 81.1737C694.906 78.8666 699.119 77.713 703.934 77.713C709.251 77.713 713.564 78.8666 716.875 81.1737C720.185 83.3806 722.743 86.4902 724.548 90.5027C727.859 86.9918 731.37 83.9825 735.081 81.4747C738.893 78.9669 743.206 77.713 748.021 77.713C756.046 77.713 761.914 80.3712 765.626 85.6878C769.338 91.0043 771.193 98.327 771.193 107.656V154H750.579V110.364C750.579 104.747 749.777 100.835 748.172 98.628C746.667 96.4211 744.209 95.3177 740.799 95.3177C738.692 95.3177 736.536 95.9697 734.329 97.2738C732.122 98.5778 729.714 100.584 727.106 103.292V154H706.492V110.364C706.492 104.747 705.69 100.835 704.085 98.628C702.58 96.4211 700.122 95.3177 696.712 95.3177C692.599 95.3177 688.035 97.9759 683.019 103.292V154H662.405ZM813.857 155.806C806.835 155.806 800.465 154.251 794.747 151.141C789.13 148.031 784.666 143.618 781.356 137.9C778.045 132.082 776.39 125.06 776.39 116.835C776.39 108.81 778.045 101.888 781.356 96.07C784.766 90.2519 789.13 85.7379 794.446 82.5279C799.763 79.318 805.38 77.713 811.299 77.713C818.22 77.713 823.988 79.2678 828.603 82.3775C833.317 85.4871 836.828 89.7504 839.135 95.1672C841.543 100.484 842.746 106.553 842.746 113.374C842.746 115.179 842.646 116.985 842.446 118.791C842.245 120.496 842.044 121.8 841.844 122.703H792.641L792.49 109.01H824.991C824.991 104.396 823.938 100.684 821.831 97.8756C819.725 94.9666 816.364 93.5121 811.75 93.5121C809.042 93.5121 806.434 94.2644 803.926 95.7691C801.418 97.2738 799.362 99.7815 797.757 103.292C796.152 106.703 795.349 111.217 795.349 116.835C795.349 122.552 796.352 127.116 798.359 130.527C800.465 133.837 803.123 136.245 806.333 137.75C809.543 139.254 812.954 140.007 816.565 140.007C819.574 140.007 822.383 139.605 824.991 138.803C827.7 137.9 830.408 136.646 833.117 135.041L839.888 147.53C836.176 150.038 832.013 152.044 827.399 153.549C822.885 155.053 818.371 155.806 813.857 155.806ZM848.415 154V79.5186H865.267L866.772 92.6093H867.374C870.082 87.694 873.292 83.9825 877.004 81.4747C880.816 78.9669 884.627 77.713 888.439 77.713C890.445 77.713 892.151 77.8634 893.555 78.1644C894.959 78.365 896.163 78.7161 897.166 79.2177L893.706 97.1233C892.402 96.722 891.148 96.4211 889.944 96.2205C888.84 96.0199 887.486 95.9195 885.881 95.9195C882.972 95.9195 879.963 96.9728 876.853 99.0794C873.744 101.186 871.135 104.897 869.029 110.214V154H848.415ZM918.931 155.806C914.016 155.806 908.95 154.853 903.734 152.947C898.618 150.94 894.204 148.433 890.493 145.423L899.822 132.483C903.232 134.991 906.543 136.947 909.753 138.351C912.963 139.756 916.223 140.458 919.533 140.458C923.044 140.458 925.602 139.806 927.207 138.502C928.812 137.198 929.614 135.442 929.614 133.235C929.614 131.53 928.862 130.076 927.357 128.872C925.953 127.568 924.047 126.464 921.64 125.562C919.332 124.559 916.875 123.555 914.267 122.552C911.157 121.349 908.047 119.844 904.938 118.038C901.928 116.233 899.37 113.925 897.264 111.117C895.258 108.308 894.255 104.847 894.255 100.735C894.255 93.9133 896.812 88.3962 901.928 84.1831C907.044 79.8697 913.815 77.713 922.241 77.713C927.859 77.713 932.774 78.6659 936.987 80.5719C941.2 82.4778 944.862 84.6345 947.971 87.042L938.793 99.5308C936.084 97.5245 933.426 95.9697 930.818 94.8663C928.21 93.6625 925.552 93.0607 922.843 93.0607C919.734 93.0607 917.376 93.7127 915.771 95.0167C914.267 96.2205 913.514 97.8255 913.514 99.8317C913.514 101.437 914.217 102.791 915.621 103.894C917.025 104.998 918.881 106.001 921.188 106.904C923.495 107.806 925.953 108.709 928.561 109.612C931.771 110.816 934.931 112.32 938.041 114.126C941.15 115.831 943.758 118.139 945.865 121.048C947.971 123.856 949.025 127.518 949.025 132.032C949.025 136.445 947.871 140.458 945.564 144.069C943.257 147.68 939.846 150.539 935.332 152.646C930.918 154.752 925.451 155.806 918.931 155.806Z" fill="#CA6767"/>
</svg>
