<svg width="1728" height="197" viewBox="0 0 1728 197" fill="none" xmlns="http://www.w3.org/2000/svg">
<path d="M5.5673 154V142.113C13.9935 134.188 21.3664 127.016 27.686 120.596C34.0057 114.076 38.9209 108.158 42.4318 102.841C45.9427 97.5245 47.6982 92.5089 47.6982 87.7943C47.6982 82.9793 46.4443 79.2678 43.9365 76.6597C41.4287 74.0516 37.9178 72.7475 33.4038 72.7475C29.9932 72.7475 26.8334 73.7507 23.9243 75.7569C21.0153 77.7631 18.357 80.1205 15.9496 82.8289L4.66449 71.6943C9.27883 66.6787 13.9935 62.917 18.8084 60.4092C23.7237 57.9014 29.5418 56.6475 36.2627 56.6475C42.482 56.6475 47.8988 57.9014 52.5132 60.4092C57.2278 62.8167 60.8892 66.2774 63.4973 70.7915C66.1054 75.3055 67.4094 80.622 67.4094 86.741C67.4094 92.1579 65.9048 97.675 62.8954 103.292C59.8861 108.91 55.9238 114.628 51.0085 120.446C46.1935 126.164 40.9773 131.931 35.3599 137.75C37.8677 137.449 40.5761 137.198 43.4851 136.997C46.4945 136.797 49.1527 136.696 51.4599 136.696H72.0739V154H5.5673ZM108.402 155.806C98.1706 155.806 89.9952 151.542 83.8762 143.016C77.7572 134.489 74.6977 122.101 74.6977 105.85C74.6977 89.4996 77.7572 77.2114 83.8762 68.9859C89.9952 60.7603 98.1706 56.6475 108.402 56.6475C118.534 56.6475 126.659 60.8105 132.778 69.1363C138.897 77.3619 141.957 89.5999 141.957 105.85C141.957 122.101 138.897 134.489 132.778 143.016C126.659 151.542 118.534 155.806 108.402 155.806ZM108.402 139.856C111.011 139.856 113.368 138.853 115.474 136.847C117.681 134.84 119.387 131.38 120.59 126.464C121.794 121.449 122.396 114.578 122.396 105.85C122.396 97.023 121.794 90.2018 120.59 85.3868C119.387 80.5719 117.681 77.2616 115.474 75.456C113.368 73.55 111.011 72.5971 108.402 72.5971C105.694 72.5971 103.236 73.55 101.03 75.456C98.923 77.2616 97.2678 80.5719 96.0641 85.3868C94.8604 90.2018 94.2585 97.023 94.2585 105.85C94.2585 114.578 94.8604 121.449 96.0641 126.464C97.2678 131.38 98.923 134.84 101.03 136.847C103.236 138.853 105.694 139.856 108.402 139.856ZM149.847 154V55.8952H170.461V97.4242H171.063L202.059 55.8952H224.93L194.987 94.7158L230.196 154H207.476L182.799 110.966L170.461 126.916V154H149.847ZM251.619 139.706V111.719H224.987V96.9728H251.619V68.9859H266.816V96.9728H293.449V111.719H266.816V139.706H251.619Z" fill="#CA6767"/>
<path d="M375.363 155.806C367.037 155.806 359.463 153.9 352.642 150.088C345.821 146.276 340.354 140.608 336.241 133.085C332.128 125.562 330.072 116.333 330.072 105.399C330.072 97.2738 331.276 90.0513 333.683 83.7317C336.091 77.412 339.401 72.0454 343.614 67.6317C347.927 63.1176 352.843 59.7572 358.36 57.5503C363.977 55.2432 369.846 54.0896 375.965 54.0896C382.284 54.0896 387.902 55.3435 392.817 57.8513C397.833 60.3591 401.945 63.3182 405.155 66.7288L394.171 79.97C391.663 77.5625 389.005 75.6064 386.196 74.1018C383.388 72.5971 380.127 71.8447 376.416 71.8447C371.701 71.8447 367.438 73.199 363.626 75.9074C359.814 78.5155 356.805 82.2772 354.598 87.1924C352.391 92.1077 351.288 97.9759 351.288 104.797C351.288 111.719 352.291 117.687 354.297 122.703C356.303 127.618 359.162 131.38 362.874 133.988C366.686 136.596 371.099 137.9 376.115 137.9C380.228 137.9 383.889 136.997 387.099 135.192C390.409 133.386 393.318 131.129 395.826 128.421L406.81 141.361C402.798 146.075 398.133 149.687 392.817 152.194C387.5 154.602 381.682 155.806 375.363 155.806ZM432.853 155.806C424.928 155.806 419.11 153.147 415.399 147.831C411.687 142.514 409.832 135.192 409.832 125.863V79.5186H430.446V123.305C430.446 128.922 431.248 132.834 432.853 135.041C434.558 137.148 437.116 138.201 440.527 138.201C443.436 138.201 445.944 137.549 448.05 136.245C450.157 134.84 452.364 132.533 454.671 129.323V79.5186H475.285V154H458.433L456.928 143.467H456.476C453.266 147.279 449.806 150.288 446.094 152.495C442.383 154.702 437.969 155.806 432.853 155.806ZM507.55 155.806C502.634 155.806 497.569 154.853 492.352 152.947C487.236 150.94 482.823 148.433 479.111 145.423L488.44 132.483C491.851 134.991 495.161 136.947 498.371 138.351C501.581 139.756 504.841 140.458 508.151 140.458C511.662 140.458 514.22 139.806 515.825 138.502C517.43 137.198 518.233 135.442 518.233 133.235C518.233 131.53 517.48 130.076 515.976 128.872C514.571 127.568 512.665 126.464 510.258 125.562C507.951 124.559 505.493 123.555 502.885 122.552C499.775 121.349 496.666 119.844 493.556 118.038C490.547 116.233 487.989 113.925 485.882 111.117C483.876 108.308 482.873 104.847 482.873 100.735C482.873 93.9133 485.431 88.3962 490.547 84.1831C495.663 79.8697 502.434 77.713 510.86 77.713C516.477 77.713 521.393 78.6659 525.606 80.5719C529.819 82.4778 533.48 84.6345 536.59 87.042L527.411 99.5308C524.703 97.5245 522.045 95.9697 519.436 94.8663C516.828 93.6625 514.17 93.0607 511.462 93.0607C508.352 93.0607 505.995 93.7127 504.39 95.0167C502.885 96.2205 502.133 97.8255 502.133 99.8317C502.133 101.437 502.835 102.791 504.239 103.894C505.644 104.998 507.499 106.001 509.807 106.904C512.114 107.806 514.571 108.709 517.179 109.612C520.389 110.816 523.549 112.32 526.659 114.126C529.769 115.831 532.377 118.139 534.483 121.048C536.59 123.856 537.643 127.518 537.643 132.032C537.643 136.445 536.489 140.458 534.182 144.069C531.875 147.68 528.465 150.539 523.951 152.646C519.537 154.752 514.07 155.806 507.55 155.806ZM570.212 155.806C561.184 155.806 554.714 153.198 550.802 147.981C546.99 142.765 545.084 135.944 545.084 127.518V95.7691H534.852V80.4214L546.288 79.5186L548.695 59.6569H565.698V79.5186H583.905V95.7691H565.698V127.367C565.698 131.58 566.551 134.69 568.256 136.696C570.062 138.602 572.519 139.555 575.629 139.555C576.933 139.555 578.237 139.405 579.541 139.104C580.845 138.803 581.999 138.452 583.002 138.05L586.312 153.097C584.306 153.699 581.949 154.301 579.24 154.903C576.532 155.505 573.523 155.806 570.212 155.806ZM620.615 155.806C614.296 155.806 608.377 154.301 602.86 151.292C597.443 148.182 593.03 143.718 589.619 137.9C586.208 132.082 584.503 125.06 584.503 116.835C584.503 108.609 586.208 101.587 589.619 95.7691C593.03 89.951 597.443 85.4871 602.86 82.3775C608.377 79.2678 614.296 77.713 620.615 77.713C626.835 77.713 632.653 79.2678 638.07 82.3775C643.587 85.4871 648.051 89.951 651.461 95.7691C654.872 101.587 656.577 108.609 656.577 116.835C656.577 125.06 654.872 132.082 651.461 137.9C648.051 143.718 643.587 148.182 638.07 151.292C632.653 154.301 626.835 155.806 620.615 155.806ZM620.615 139.104C623.825 139.104 626.534 138.201 628.741 136.395C630.947 134.59 632.603 132.032 633.706 128.721C634.809 125.311 635.361 121.349 635.361 116.835C635.361 112.32 634.809 108.408 633.706 105.098C632.603 101.687 630.947 99.0794 628.741 97.2738C626.534 95.3678 623.825 94.4149 620.615 94.4149C617.305 94.4149 614.546 95.3678 612.34 97.2738C610.133 99.0794 608.478 101.687 607.374 105.098C606.271 108.408 605.719 112.32 605.719 116.835C605.719 121.349 606.271 125.311 607.374 128.721C608.478 132.032 610.133 134.59 612.34 136.395C614.546 138.201 617.305 139.104 620.615 139.104ZM662.405 154V79.5186H679.258L680.762 89.299H681.364C684.374 86.1893 687.684 83.4809 691.295 81.1737C694.906 78.8666 699.119 77.713 703.934 77.713C709.251 77.713 713.564 78.8666 716.875 81.1737C720.185 83.3806 722.743 86.4902 724.548 90.5027C727.859 86.9918 731.37 83.9825 735.081 81.4747C738.893 78.9669 743.206 77.713 748.021 77.713C756.046 77.713 761.914 80.3712 765.626 85.6878C769.338 91.0043 771.193 98.327 771.193 107.656V154H750.579V110.364C750.579 104.747 749.777 100.835 748.172 98.628C746.667 96.4211 744.209 95.3177 740.799 95.3177C738.692 95.3177 736.536 95.9697 734.329 97.2738C732.122 98.5778 729.714 100.584 727.106 103.292V154H706.492V110.364C706.492 104.747 705.69 100.835 704.085 98.628C702.58 96.4211 700.122 95.3177 696.712 95.3177C692.599 95.3177 688.035 97.9759 683.019 103.292V154H662.405ZM813.857 155.806C806.835 155.806 800.465 154.251 794.747 151.141C789.13 148.031 784.666 143.618 781.356 137.9C778.045 132.082 776.39 125.06 776.39 116.835C776.39 108.81 778.045 101.888 781.356 96.07C784.766 90.2519 789.13 85.7379 794.446 82.5279C799.763 79.318 805.38 77.713 811.299 77.713C818.22 77.713 823.988 79.2678 828.603 82.3775C833.317 85.4871 836.828 89.7504 839.135 95.1672C841.543 100.484 842.746 106.553 842.746 113.374C842.746 115.179 842.646 116.985 842.446 118.791C842.245 120.496 842.044 121.8 841.844 122.703H792.641L792.49 109.01H824.991C824.991 104.396 823.938 100.684 821.831 97.8756C819.725 94.9666 816.364 93.5121 811.75 93.5121C809.042 93.5121 806.434 94.2644 803.926 95.7691C801.418 97.2738 799.362 99.7815 797.757 103.292C796.152 106.703 795.349 111.217 795.349 116.835C795.349 122.552 796.352 127.116 798.359 130.527C800.465 133.837 803.123 136.245 806.333 137.75C809.543 139.254 812.954 140.007 816.565 140.007C819.574 140.007 822.383 139.605 824.991 138.803C827.7 137.9 830.408 136.646 833.117 135.041L839.888 147.53C836.176 150.038 832.013 152.044 827.399 153.549C822.885 155.053 818.371 155.806 813.857 155.806ZM848.415 154V79.5186H865.267L866.772 92.6093H867.374C870.082 87.694 873.292 83.9825 877.004 81.4747C880.816 78.9669 884.627 77.713 888.439 77.713C890.445 77.713 892.151 77.8634 893.555 78.1644C894.959 78.365 896.163 78.7161 897.166 79.2177L893.706 97.1233C892.402 96.722 891.148 96.4211 889.944 96.2205C888.84 96.0199 887.486 95.9195 885.881 95.9195C882.972 95.9195 879.963 96.9728 876.853 99.0794C873.744 101.186 871.135 104.897 869.029 110.214V154H848.415ZM918.931 155.806C914.016 155.806 908.95 154.853 903.734 152.947C898.618 150.94 894.204 148.433 890.493 145.423L899.822 132.483C903.232 134.991 906.543 136.947 909.753 138.351C912.963 139.756 916.223 140.458 919.533 140.458C923.044 140.458 925.602 139.806 927.207 138.502C928.812 137.198 929.614 135.442 929.614 133.235C929.614 131.53 928.862 130.076 927.357 128.872C925.953 127.568 924.047 126.464 921.64 125.562C919.332 124.559 916.875 123.555 914.267 122.552C911.157 121.349 908.047 119.844 904.938 118.038C901.928 116.233 899.37 113.925 897.264 111.117C895.258 108.308 894.255 104.847 894.255 100.735C894.255 93.9133 896.812 88.3962 901.928 84.1831C907.044 79.8697 913.815 77.713 922.241 77.713C927.859 77.713 932.774 78.6659 936.987 80.5719C941.2 82.4778 944.862 84.6345 947.971 87.042L938.793 99.5308C936.084 97.5245 933.426 95.9697 930.818 94.8663C928.21 93.6625 925.552 93.0607 922.843 93.0607C919.734 93.0607 917.376 93.7127 915.771 95.0167C914.267 96.2205 913.514 97.8255 913.514 99.8317C913.514 101.437 914.217 102.791 915.621 103.894C917.025 104.998 918.881 106.001 921.188 106.904C923.495 107.806 925.953 108.709 928.561 109.612C931.771 110.816 934.931 112.32 938.041 114.126C941.15 115.831 943.758 118.139 945.865 121.048C947.971 123.856 949.025 127.518 949.025 132.032C949.025 136.445 947.871 140.458 945.564 144.069C943.257 147.68 939.846 150.539 935.332 152.646C930.918 154.752 925.451 155.806 918.931 155.806Z" fill="#CA6767"/>
<path d="M1082 52.6666L1069.5 86L1036.17 98.5L1069.5 111L1082 144.333L1094.5 111L1127.83 98.5L1094.5 86L1082 52.6666Z" fill="#C5CAFF"/>
<path d="M1215.57 154V142.113C1223.99 134.188 1231.37 127.016 1237.69 120.596C1244.01 114.076 1248.92 108.158 1252.43 102.841C1255.94 97.5245 1257.7 92.5089 1257.7 87.7943C1257.7 82.9793 1256.44 79.2678 1253.94 76.6597C1251.43 74.0516 1247.92 72.7475 1243.4 72.7475C1239.99 72.7475 1236.83 73.7507 1233.92 75.7569C1231.02 77.7631 1228.36 80.1205 1225.95 82.8289L1214.66 71.6943C1219.28 66.6787 1223.99 62.917 1228.81 60.4092C1233.72 57.9014 1239.54 56.6475 1246.26 56.6475C1252.48 56.6475 1257.9 57.9014 1262.51 60.4092C1267.23 62.8167 1270.89 66.2774 1273.5 70.7915C1276.11 75.3055 1277.41 80.622 1277.41 86.741C1277.41 92.1579 1275.9 97.675 1272.9 103.292C1269.89 108.91 1265.92 114.628 1261.01 120.446C1256.19 126.164 1250.98 131.931 1245.36 137.75C1247.87 137.449 1250.58 137.198 1253.49 136.997C1256.49 136.797 1259.15 136.696 1261.46 136.696H1282.07V154H1215.57ZM1318.4 155.806C1308.17 155.806 1300 151.542 1293.88 143.016C1287.76 134.489 1284.7 122.101 1284.7 105.85C1284.7 89.4996 1287.76 77.2114 1293.88 68.9859C1300 60.7603 1308.17 56.6475 1318.4 56.6475C1328.53 56.6475 1336.66 60.8105 1342.78 69.1363C1348.9 77.3619 1351.96 89.5999 1351.96 105.85C1351.96 122.101 1348.9 134.489 1342.78 143.016C1336.66 151.542 1328.53 155.806 1318.4 155.806ZM1318.4 139.856C1321.01 139.856 1323.37 138.853 1325.47 136.847C1327.68 134.84 1329.39 131.38 1330.59 126.464C1331.79 121.449 1332.4 114.578 1332.4 105.85C1332.4 97.023 1331.79 90.2018 1330.59 85.3868C1329.39 80.5719 1327.68 77.2616 1325.47 75.456C1323.37 73.55 1321.01 72.5971 1318.4 72.5971C1315.69 72.5971 1313.24 73.55 1311.03 75.456C1308.92 77.2616 1307.27 80.5719 1306.06 85.3868C1304.86 90.2018 1304.26 97.023 1304.26 105.85C1304.26 114.578 1304.86 121.449 1306.06 126.464C1307.27 131.38 1308.92 134.84 1311.03 136.847C1313.24 138.853 1315.69 139.856 1318.4 139.856ZM1379.71 139.706V111.719H1353.08V96.9728H1379.71V68.9859H1394.91V96.9728H1421.54V111.719H1394.91V139.706H1379.71Z" fill="white"/>
<path d="M1462.89 154V55.8952H1495.84C1502.56 55.8952 1508.63 56.6475 1514.05 58.1522C1519.46 59.5566 1523.73 62.0644 1526.84 65.6756C1530.05 69.1865 1531.65 74.0014 1531.65 80.1205C1531.65 84.6345 1530.45 88.9479 1528.04 93.0607C1525.73 97.0731 1522.52 99.8317 1518.41 101.336V101.938C1523.63 103.142 1527.94 105.65 1531.35 109.462C1534.86 113.273 1536.62 118.49 1536.62 125.11C1536.62 131.731 1534.91 137.198 1531.5 141.511C1528.09 145.724 1523.53 148.884 1517.81 150.991C1512.09 152.997 1505.67 154 1498.55 154H1462.89ZM1483.5 138.05H1496.74C1503.16 138.05 1508.03 136.897 1511.34 134.59C1514.65 132.182 1516.3 128.571 1516.3 123.756C1516.3 119.242 1514.65 115.982 1511.34 113.976C1508.03 111.869 1503.16 110.816 1496.74 110.816H1483.5V138.05ZM1483.5 95.4681H1494.64C1500.45 95.4681 1504.67 94.3647 1507.27 92.1579C1509.98 89.951 1511.34 86.9416 1511.34 83.1298C1511.34 79.017 1509.93 76.108 1507.12 74.4027C1504.42 72.6974 1500.3 71.8447 1494.79 71.8447H1483.5V95.4681ZM1561.22 155.806C1556.51 155.806 1552.75 154.853 1549.94 152.947C1547.13 150.94 1545.07 148.182 1543.77 144.671C1542.57 141.16 1541.96 136.997 1541.96 132.182V48.3718H1562.58V133.085C1562.58 135.292 1562.98 136.847 1563.78 137.75C1564.68 138.652 1565.59 139.104 1566.49 139.104C1566.99 139.104 1567.39 139.104 1567.69 139.104C1568.09 139.003 1568.6 138.903 1569.2 138.803L1571.76 154C1570.55 154.502 1569.1 154.903 1567.39 155.204C1565.69 155.605 1563.63 155.806 1561.22 155.806ZM1606.1 155.806C1599.78 155.806 1593.86 154.301 1588.35 151.292C1582.93 148.182 1578.51 143.718 1575.1 137.9C1571.69 132.082 1569.99 125.06 1569.99 116.835C1569.99 108.609 1571.69 101.587 1575.1 95.7691C1578.51 89.951 1582.93 85.4871 1588.35 82.3775C1593.86 79.2678 1599.78 77.713 1606.1 77.713C1612.32 77.713 1618.14 79.2678 1623.55 82.3775C1629.07 85.4871 1633.54 89.951 1636.95 95.7691C1640.36 101.587 1642.06 108.609 1642.06 116.835C1642.06 125.06 1640.36 132.082 1636.95 137.9C1633.54 143.718 1629.07 148.182 1623.55 151.292C1618.14 154.301 1612.32 155.806 1606.1 155.806ZM1606.1 139.104C1609.31 139.104 1612.02 138.201 1614.23 136.395C1616.43 134.59 1618.09 132.032 1619.19 128.721C1620.29 125.311 1620.85 121.349 1620.85 116.835C1620.85 112.32 1620.29 108.408 1619.19 105.098C1618.09 101.687 1616.43 99.0794 1614.23 97.2738C1612.02 95.3678 1609.31 94.4149 1606.1 94.4149C1602.79 94.4149 1600.03 95.3678 1597.82 97.2738C1595.62 99.0794 1593.96 101.687 1592.86 105.098C1591.76 108.408 1591.2 112.32 1591.2 116.835C1591.2 121.349 1591.76 125.311 1592.86 128.721C1593.96 132.032 1595.62 134.59 1597.82 136.395C1600.03 138.201 1602.79 139.104 1606.1 139.104ZM1679.94 155.806C1673.12 155.806 1666.95 154.301 1661.43 151.292C1655.92 148.182 1651.5 143.718 1648.19 137.9C1644.98 132.082 1643.38 125.06 1643.38 116.835C1643.38 108.609 1645.18 101.587 1648.79 95.7691C1652.4 89.951 1657.12 85.4871 1662.94 82.3775C1668.76 79.2678 1675.02 77.713 1681.75 77.713C1686.36 77.713 1690.47 78.5155 1694.08 80.1205C1697.69 81.6251 1700.85 83.5311 1703.56 85.8382L1693.63 99.2298C1691.83 97.5245 1690.07 96.3208 1688.37 95.6186C1686.76 94.8161 1684.96 94.4149 1682.95 94.4149C1679.24 94.4149 1675.98 95.3678 1673.17 97.2738C1670.46 99.0794 1668.35 101.687 1666.85 105.098C1665.34 108.408 1664.59 112.32 1664.59 116.835C1664.59 121.349 1665.34 125.311 1666.85 128.721C1668.35 132.032 1670.41 134.59 1673.02 136.395C1675.73 138.201 1678.79 139.104 1682.2 139.104C1684.8 139.104 1687.31 138.552 1689.72 137.449C1692.13 136.345 1694.28 134.991 1696.19 133.386L1704.47 146.928C1700.85 150.038 1696.89 152.295 1692.58 153.699C1688.27 155.103 1684.05 155.806 1679.94 155.806ZM1708.2 154V48.3718H1728.36V110.665H1728.97L1753.79 79.5186H1776.21L1750.33 110.063L1778.32 154H1756.05L1738.6 123.906L1728.36 135.492V154H1708.2ZM1811.58 155.806C1804.76 155.806 1798.59 154.301 1793.07 151.292C1787.56 148.182 1783.14 143.718 1779.83 137.9C1776.62 132.082 1775.02 125.06 1775.02 116.835C1775.02 108.609 1776.82 101.587 1780.43 95.7691C1784.05 89.951 1788.76 85.4871 1794.58 82.3775C1800.4 79.2678 1806.67 77.713 1813.39 77.713C1818 77.713 1822.11 78.5155 1825.73 80.1205C1829.34 81.6251 1832.5 83.5311 1835.2 85.8382L1825.27 99.2298C1823.47 97.5245 1821.71 96.3208 1820.01 95.6186C1818.4 94.8161 1816.6 94.4149 1814.59 94.4149C1810.88 94.4149 1807.62 95.3678 1804.81 97.2738C1802.1 99.0794 1800 101.687 1798.49 105.098C1796.99 108.408 1796.23 112.32 1796.23 116.835C1796.23 121.349 1796.99 125.311 1798.49 128.721C1800 132.032 1802.05 134.59 1804.66 136.395C1807.37 138.201 1810.43 139.104 1813.84 139.104C1816.45 139.104 1818.95 138.552 1821.36 137.449C1823.77 136.345 1825.93 134.991 1827.83 133.386L1836.11 146.928C1832.5 150.038 1828.53 152.295 1824.22 153.699C1819.91 155.103 1815.69 155.806 1811.58 155.806ZM1839.84 154V48.3718H1860.46V74.5532L1859.55 88.3962C1862.46 85.6878 1865.77 83.2301 1869.48 81.0233C1873.3 78.8164 1877.76 77.713 1882.88 77.713C1890.9 77.713 1896.72 80.3712 1900.33 85.6878C1904.04 91.0043 1905.9 98.327 1905.9 107.656V154H1885.28V110.364C1885.28 104.747 1884.48 100.835 1882.88 98.628C1881.27 96.4211 1878.76 95.3177 1875.35 95.3177C1872.34 95.3177 1869.79 96.0199 1867.68 97.4242C1865.57 98.7283 1863.16 100.684 1860.46 103.292V154H1839.84ZM1933.94 155.806C1929.53 155.806 1925.67 154.853 1922.36 152.947C1919.05 150.94 1916.44 148.282 1914.53 144.972C1912.73 141.561 1911.82 137.75 1911.82 133.536C1911.82 125.712 1915.18 119.593 1921.9 115.179C1928.63 110.766 1939.46 107.756 1954.41 106.151C1954.31 103.844 1953.8 101.788 1952.9 99.9822C1952.1 98.1766 1950.79 96.7722 1948.99 95.7691C1947.28 94.766 1944.98 94.2644 1942.07 94.2644C1938.76 94.2644 1935.45 94.9164 1932.14 96.2205C1928.93 97.4242 1925.57 99.0794 1922.05 101.186L1914.53 87.4934C1917.54 85.6878 1920.75 84.0326 1924.16 82.5279C1927.57 81.0233 1931.08 79.8697 1934.69 79.0672C1938.31 78.1644 1942.07 77.713 1945.98 77.713C1952.3 77.713 1957.62 78.9669 1961.93 81.4747C1966.24 83.9825 1969.5 87.694 1971.71 92.6093C1973.92 97.4242 1975.02 103.543 1975.02 110.966V154H1958.17L1956.66 146.176H1956.06C1952.95 148.984 1949.54 151.292 1945.83 153.097C1942.22 154.903 1938.26 155.806 1933.94 155.806ZM1940.86 139.856C1943.57 139.856 1945.93 139.254 1947.94 138.05C1950.04 136.746 1952.2 135.041 1954.41 132.935V118.791C1948.69 119.493 1944.17 120.496 1940.86 121.8C1937.55 123.004 1935.2 124.508 1933.79 126.314C1932.39 128.019 1931.68 129.875 1931.68 131.881C1931.68 134.59 1932.54 136.596 1934.24 137.9C1935.95 139.204 1938.16 139.856 1940.86 139.856ZM1984.56 154V79.5186H2005.18V154H1984.56ZM1994.94 68.0831C1991.63 68.0831 1988.87 67.0298 1986.67 64.9232C1984.46 62.8167 1983.36 60.1584 1983.36 56.9485C1983.36 53.7385 1984.46 51.1304 1986.67 49.1241C1988.87 47.0176 1991.63 45.9643 1994.94 45.9643C1998.35 45.9643 2001.11 47.0176 2003.22 49.1241C2005.43 51.1304 2006.53 53.7385 2006.53 56.9485C2006.53 60.1584 2005.43 62.8167 2003.22 64.9232C2001.11 67.0298 1998.35 68.0831 1994.94 68.0831ZM2015.78 154V79.5186H2032.63L2034.13 89.1485H2034.74C2037.95 86.0388 2041.46 83.3806 2045.27 81.1737C2049.18 78.8666 2053.7 77.713 2058.81 77.713C2066.84 77.713 2072.65 80.3712 2076.27 85.6878C2079.98 91.0043 2081.83 98.327 2081.83 107.656V154H2061.22V110.364C2061.22 104.747 2060.42 100.835 2058.81 98.628C2057.21 96.4211 2054.7 95.3177 2051.29 95.3177C2048.28 95.3177 2045.72 96.0199 2043.61 97.4242C2041.51 98.7283 2039.1 100.684 2036.39 103.292V154H2015.78ZM2113.18 155.806C2108.27 155.806 2103.2 154.853 2097.99 152.947C2092.87 150.94 2088.46 148.433 2084.75 145.423L2094.07 132.483C2097.49 134.991 2100.8 136.947 2104.01 138.351C2107.22 139.756 2110.48 140.458 2113.79 140.458C2117.3 140.458 2119.85 139.806 2121.46 138.502C2123.06 137.198 2123.87 135.442 2123.87 133.235C2123.87 131.53 2123.11 130.076 2121.61 128.872C2120.21 127.568 2118.3 126.464 2115.89 125.562C2113.59 124.559 2111.13 123.555 2108.52 122.552C2105.41 121.349 2102.3 119.844 2099.19 118.038C2096.18 116.233 2093.62 113.925 2091.52 111.117C2089.51 108.308 2088.51 104.847 2088.51 100.735C2088.51 93.9133 2091.07 88.3962 2096.18 84.1831C2101.3 79.8697 2108.07 77.713 2116.49 77.713C2122.11 77.713 2127.03 78.6659 2131.24 80.5719C2135.45 82.4778 2139.11 84.6345 2142.22 87.042L2133.05 99.5308C2130.34 97.5245 2127.68 95.9697 2125.07 94.8663C2122.46 93.6625 2119.8 93.0607 2117.1 93.0607C2113.99 93.0607 2111.63 93.7127 2110.02 95.0167C2108.52 96.2205 2107.77 97.8255 2107.77 99.8317C2107.77 101.437 2108.47 102.791 2109.87 103.894C2111.28 104.998 2113.13 106.001 2115.44 106.904C2117.75 107.806 2120.21 108.709 2122.81 109.612C2126.02 110.816 2129.18 112.32 2132.29 114.126C2135.4 115.831 2138.01 118.139 2140.12 121.048C2142.22 123.856 2143.28 127.518 2143.28 132.032C2143.28 136.445 2142.12 140.458 2139.82 144.069C2137.51 147.68 2134.1 150.539 2129.58 152.646C2125.17 154.752 2119.7 155.806 2113.18 155.806Z" fill="white"/>
</svg>
